<?xml version="1.0" ?><svg height="18.992197" id="svg8" version="1.1" viewBox="0 0 4.765601 5.025019" width="18.011721" xmlns="http://www.w3.org/2000/svg" xmlns:cc="http://creativecommons.org/ns#" xmlns:dc="http://purl.org/dc/elements/1.1/" xmlns:rdf="http://www.w3.org/1999/02/22-rdf-syntax-ns#" xmlns:svg="http://www.w3.org/2000/svg"><defs id="defs2"/><g id="layer5" transform="translate(-52.385435,-0.52916668)"><g id="FLAT-4"><path d="m 54.768751,0.52916668 c -0.581369,0 -1.058333,0.47696952 -1.058333,1.05833332 0,0.5813774 0.476972,1.0583334 1.058333,1.0583334 0.581361,0 1.058334,-0.476956 1.058334,-1.0583334 0,-0.5813638 -0.476965,-1.05833332 -1.058334,-1.05833332 z m 0.0021,2.37918312 c -1.311989,0 -2.385383,1.0734112 -2.385383,2.3853839 A 0.26461043,0.26461043 0 0 0 52.6511,5.5541832 h 4.234318 a 0.26461043,0.26461043 0 0 0 0.265618,-0.2604495 c 0,-1.3119727 -1.068226,-2.3853841 -2.380218,-2.3853839 z" id="path1286" style="color:#000000;font-style:normal;font-variant:normal;font-weight:normal;font-stretch:normal;font-size:medium;line-height:normal;font-family:sans-serif;font-variant-ligatures:normal;font-variant-position:normal;font-variant-caps:normal;font-variant-numeric:normal;font-variant-alternates:normal;font-variant-east-asian:normal;font-feature-settings:normal;font-variation-settings:normal;text-indent:0;text-align:start;text-decoration:none;text-decoration-line:none;text-decoration-style:solid;text-decoration-color:#000000;letter-spacing:normal;word-spacing:normal;text-transform:none;writing-mode:lr-tb;direction:ltr;text-orientation:mixed;dominant-baseline:auto;baseline-shift:baseline;text-anchor:start;white-space:normal;shape-padding:0;shape-margin:0;inline-size:0;clip-rule:nonzero;display:inline;overflow:visible;visibility:visible;isolation:auto;mix-blend-mode:normal;color-interpolation:sRGB;color-interpolation-filters:linearRGB;solid-color:#000000;solid-opacity:1;vector-effect:none;fill:#82bbfb;fill-opacity:1;fill-rule:nonzero;stroke:none;stroke-width:0.529167;stroke-linecap:round;stroke-linejoin:round;stroke-miterlimit:4;stroke-dasharray:none;stroke-dashoffset:0;stroke-opacity:1;color-rendering:auto;image-rendering:auto;shape-rendering:auto;text-rendering:auto;enable-background:accumulate;stop-color:#000000"/><path d="M 214.94141,15.771484 A 17.202391,32.202391 69.881832 0 1 198.0625,18.9375 c -0.0422,0.351926 -0.0703,0.707497 -0.0703,1.070312 a 1.0001024,1.0001024 0 0 0 1.0039,0.984376 H 215 a 1.0001024,1.0001024 0 0 0 1.00391,-0.984376 c 0,-1.528851 -0.38623,-2.971382 -1.0625,-4.236328 z" id="path1348" style="color:#000000;font-style:normal;font-variant:normal;font-weight:normal;font-stretch:normal;font-size:medium;line-height:normal;font-family:sans-serif;font-variant-ligatures:normal;font-variant-position:normal;font-variant-caps:normal;font-variant-numeric:normal;font-variant-alternates:normal;font-variant-east-asian:normal;font-feature-settings:normal;font-variation-settings:normal;text-indent:0;text-align:start;text-decoration:none;text-decoration-line:none;text-decoration-style:solid;text-decoration-color:#000000;letter-spacing:normal;word-spacing:normal;text-transform:none;writing-mode:lr-tb;direction:ltr;text-orientation:mixed;dominant-baseline:auto;baseline-shift:baseline;text-anchor:start;white-space:normal;shape-padding:0;shape-margin:0;inline-size:0;clip-rule:nonzero;display:inline;overflow:visible;visibility:visible;isolation:auto;mix-blend-mode:normal;color-interpolation:sRGB;color-interpolation-filters:linearRGB;solid-color:#000000;solid-opacity:1;vector-effect:none;fill:#65a3fc;fill-opacity:1;fill-rule:nonzero;stroke:none;stroke-width:2;stroke-linecap:round;stroke-linejoin:round;stroke-miterlimit:4;stroke-dasharray:none;stroke-dashoffset:0;stroke-opacity:1;color-rendering:auto;image-rendering:auto;shape-rendering:auto;text-rendering:auto;enable-background:accumulate;stop-color:#000000" transform="scale(0.26458334)"/><g id="g1292" transform="translate(-0.26458157,-0.5291633)"><path d="m 206.9707,13 a 1.0000006,1.0000006 0 0 0 -0.67968,0.294922 l -2,2 a 1.0001006,1.0001006 0 0 0 0,1.410156 l 2,2.001953 a 1.0000006,1.0000006 0 0 0 1.41796,0 1.0000006,1.0000006 0 0 0 0,-1.410156 l -0.29296,-0.294922 h 2.58007 A 1.0000006,1.0000006 0 0 0 211,15.996094 1.0000006,1.0000006 0 0 0 209.99609,15 h -2.58203 l 0.29492,-0.294922 a 1.0000006,1.0000006 0 0 0 0,-1.410156 A 1.0000006,1.0000006 0 0 0 206.9707,13 Z" id="path1296" style="color:#000000;font-style:normal;font-variant:normal;font-weight:normal;font-stretch:normal;font-size:medium;line-height:normal;font-family:sans-serif;font-variant-ligatures:normal;font-variant-position:normal;font-variant-caps:normal;font-variant-numeric:normal;font-variant-alternates:normal;font-variant-east-asian:normal;font-feature-settings:normal;font-variation-settings:normal;text-indent:0;text-align:start;text-decoration:none;text-decoration-line:none;text-decoration-style:solid;text-decoration-color:#000000;letter-spacing:normal;word-spacing:normal;text-transform:none;writing-mode:lr-tb;direction:ltr;text-orientation:mixed;dominant-baseline:auto;baseline-shift:baseline;text-anchor:start;white-space:normal;shape-padding:0;shape-margin:0;inline-size:0;clip-rule:nonzero;display:inline;overflow:visible;visibility:visible;opacity:1;isolation:auto;mix-blend-mode:normal;color-interpolation:sRGB;color-interpolation-filters:linearRGB;solid-color:#000000;solid-opacity:1;vector-effect:none;fill:#007ff9;fill-opacity:1;fill-rule:nonzero;stroke:none;stroke-width:2;stroke-linecap:round;stroke-linejoin:round;stroke-miterlimit:4;stroke-dasharray:none;stroke-dashoffset:0;stroke-opacity:1;color-rendering:auto;image-rendering:auto;shape-rendering:auto;text-rendering:auto;enable-background:accumulate;stop-color:#000000;stop-opacity:1" transform="matrix(0.26458334,0,0,0.26458334,0.26458157,0.5291633)"/><path d="m 207.96875,17.755859 a 17.202391,32.202391 69.881832 0 1 -2.19531,0.431641 l 0.51758,0.519531 a 1.0000006,1.0000006 0 0 0 1.41796,0 1.0000006,1.0000006 0 0 0 0.25977,-0.951172 z" id="path1352" style="color:#000000;font-style:normal;font-variant:normal;font-weight:normal;font-stretch:normal;font-size:medium;line-height:normal;font-family:sans-serif;font-variant-ligatures:normal;font-variant-position:normal;font-variant-caps:normal;font-variant-numeric:normal;font-variant-alternates:normal;font-variant-east-asian:normal;font-feature-settings:normal;font-variation-settings:normal;text-indent:0;text-align:start;text-decoration:none;text-decoration-line:none;text-decoration-style:solid;text-decoration-color:#000000;letter-spacing:normal;word-spacing:normal;text-transform:none;writing-mode:lr-tb;direction:ltr;text-orientation:mixed;dominant-baseline:auto;baseline-shift:baseline;text-anchor:start;white-space:normal;shape-padding:0;shape-margin:0;inline-size:0;clip-rule:nonzero;display:inline;overflow:visible;visibility:visible;opacity:1;isolation:auto;mix-blend-mode:normal;color-interpolation:sRGB;color-interpolation-filters:linearRGB;solid-color:#000000;solid-opacity:1;vector-effect:none;fill:#006ef9;fill-opacity:1;fill-rule:nonzero;stroke:none;stroke-width:2;stroke-linecap:round;stroke-linejoin:round;stroke-miterlimit:4;stroke-dasharray:none;stroke-dashoffset:0;stroke-opacity:1;color-rendering:auto;image-rendering:auto;shape-rendering:auto;text-rendering:auto;enable-background:accumulate;stop-color:#000000;stop-opacity:1" transform="matrix(0.26458334,0,0,0.26458334,0.26458157,0.5291633)"/></g></g></g></svg>