<?xml version="1.0" ?><svg enable-background="new 0 0 24 24" id="Layer_1" version="1.1" viewBox="0 0 24 24" xml:space="preserve" xmlns="http://www.w3.org/2000/svg" xmlns:xlink="http://www.w3.org/1999/xlink"><g><path d="M21,20.5c0-0.8271484-0.6728516-1.5-1.5-1.5S18,19.6728516,18,20.5   c0,0.1761475,0.0360718,0.3428345,0.0921021,0.5H16v-6.4574585c0.6040039-0.588562,1-1.6975098,1-3.0425415   C17,9.5048828,16.1401367,8,15,8c-0.0366211,0-0.0727539,0.0039063-0.1083984,0.0117188   c-0.4923096,0.109314-1.6891479,0.3563843-2.4373169,0.449585c-0.0137939-0.1507568-0.0305176-0.3223877-0.0497437-0.5057983   C13.868103,7.7380981,15,6.3835449,15,4.7272339C15,2.7727051,13.166687,2.0908813,13,0   c-1.333313,0.6969604-2.0003052,1.9269409-2,4c0,0-1-0.3636475-1-1.8181763C9.333313,2.8787842,9,3.5075684,9,4.7272339   c0,1.656311,1.131897,3.0108643,2.595459,3.2282715c-0.0192261,0.1834106-0.0359497,0.3550415-0.0497437,0.5057983   c-0.7481689-0.0932007-1.9450073-0.340271-2.4373169-0.449585C9.0727539,8.0039063,9.0366211,8,9,8c-1.1030273,0-2,0.8969727-2,2   c0,0.7371216,0.4050903,1.375,1,1.7218628V21H3.5C3.2236328,21,3,21.2236328,3,21.5V22c0,1.1030273,0.8969727,2,2,2h13   c1.1030273,0,2-0.8969727,2-2v-0.0921021C20.5807495,21.7008057,21,21.151001,21,20.5z M19.5,21   c-0.2758789,0-0.5-0.2241211-0.5-0.5s0.2241211-0.5,0.5-0.5s0.5,0.2241211,0.5,0.5S19.7758789,21,19.5,21z" fill="#F47920" id="base_color_21_"/><g id="light_foil_17_"><path d="M12,8.5c0.1109619,0,0.2734375-0.0161743,0.4542847-0.0386963    C12.3753662,7.5986328,12.2019653,6,12,6s-0.3753662,1.5986328-0.4542847,2.4613037C11.7265625,8.4838257,11.8890381,8.5,12,8.5z" fill="#FFFFFF" opacity="0.1"/><path d="M16,21v-6.4574585C15.7080688,14.8269653,15.371521,15,15,15    c-0.8066406,0-0.8969727-0.8603516-0.9560547-1.4296875c-0.0776367-0.7397461-0.1713867-1.2939453-0.6328125-1.5576172    c-0.0976563,0.0751953-0.2441406,0.2255859-0.3393555,0.3237305C12.7514648,12.6650391,12.40625,13.019043,11.9931641,13    c-0.5083008-0.0068359-0.9316406-0.4345703-1.3413086-0.8486328c-0.1943359-0.1962891-0.5200195-0.5253906-0.6523438-0.5517578    c-0.027832,0.0043945-0.1401367,0.0751953-0.2075195,0.1176758C9.6025391,11.8364258,9.3432617,12,9,12    c-0.3659058,0-0.7046509-0.105896-1-0.2781372V21H16z" fill="#FFFFFF" opacity="0.2"/><path d="M19.5,22c-0.651001,0-1.2008057-0.4192505-1.4078979-1H3.5    C3.2236328,21,3,21.2236328,3,21.5V22c0,1.1030273,0.8969727,2,2,2h13c1.1030273,0,2-0.8969727,2-2v-0.0921021    C19.8428345,21.9639282,19.6761475,22,19.5,22z" fill="#FFFFFF" opacity="0.1"/><path d="M19.5,22c-0.8271484,0-1.5-0.6728516-1.5-1.5s0.6728516-1.5,1.5-1.5s1.5,0.6728516,1.5,1.5    S20.3271484,22,19.5,22z M19.5,20c-0.2758789,0-0.5,0.2241211-0.5,0.5s0.2241211,0.5,0.5,0.5s0.5-0.2241211,0.5-0.5    S19.7758789,20,19.5,20z" fill="#FFFFFF" opacity="0.2"/></g></g><g/><g/><g/><g/><g/><g/><g/><g/><g/><g/><g/><g/><g/><g/><g/></svg>