<?xml version="1.0" ?><svg enable-background="new 0 0 24 24" id="Layer_1" version="1.1" viewBox="0 0 24 24" xml:space="preserve" xmlns="http://www.w3.org/2000/svg" xmlns:xlink="http://www.w3.org/1999/xlink"><g><path d="M22.2358398,17.0166016c-0.0664063-0.065918-0.1503906-0.1118164-0.2412109-0.1323242   c-0.1080933-0.024353-0.2160645-0.0123901-0.3355103,0.0126953c-0.0022583,0.0004883-0.0041504-0.0002441-0.0064697,0.0002441   C22.5103149,15.2872925,23,13.4514771,23,11.5C23,5.1486816,17.8512573,0,11.5,0s-11.5,5.1486816-11.5,11.5   c0,6.3512573,5.1487427,11.5,11.5,11.5c1.5900879,0,3.1046143-0.322998,4.4819946-0.9064941   c0.0545654,0.0599365,0.1104126,0.1191406,0.1625366,0.1804199c0.1259766,0.1474609,0.3232422,0.2055664,0.5117188,0.1586914   c0,0,0.0003662-0.000061,0.0005493-0.0001221c0.0016479-0.0003662,0.0031738,0.0005493,0.0048218,0.0001221   c0.5325317-0.1449585,1.072998-0.2199097,1.6099243-0.2279053c1.6115723-0.0227051,3.1904907,0.5584106,4.4237671,1.6668701   C22.7871094,23.9550781,22.9072266,24,23.0292969,24c0.0011597,0,0.0022583-0.0003662,0.003418-0.0003662   c0,0,0.0012817,0.0003662,0.0019531,0.0003662c0.0351563,0,0.0703125-0.003418,0.1044922-0.0112305   c0.1572266-0.0332031,0.2880859-0.1401367,0.3525391-0.2866211C24.4916992,21.4418945,23.9868164,18.7553711,22.2358398,17.0166016   z" fill="#F47920" id="base_color_10_"/><g id="light_foil_7_"><path d="M15.8881836,21.9833984c-0.8681641-0.8671875-2.0253906-1.3828125-3.2587891-1.4511719    c-0.1728516-0.0092773-0.3427734-0.0107422-0.5166016-0.0014648c-0.890625,0.0424805-1.8066406,0.4018555-2.6494141,1.0400391    L9.206543,21.7646484c-0.1992188,0.1499023-0.4775391,0.1303711-0.6552734-0.0463867    c-0.1757813-0.1767578-0.1943359-0.456543-0.0439453-0.6552734l0.1933594-0.2548828    c0.6376953-0.8417969,0.9970703-1.7583008,1.0410156-2.6499023c0.0078125-0.1704102,0.0068359-0.3432617-0.0029297-0.5151367    c-0.0673828-1.234375-0.5830078-2.3916016-1.4501953-3.2597656c-0.0927734-0.0922852-0.1923828-0.1777344-0.2919922-0.2626953    c-0.1464844-0.1254883-0.2080078-0.3242188-0.1572266-0.5102539C8.4165039,11.472168,7.878418,9.2143555,6.3989258,7.5708008    C6.2924805,7.4516602,6.2485352,7.2880859,6.2817383,7.1318359C6.315918,6.9750977,6.4223633,6.84375,6.5688477,6.7788086    c2.2626953-1.0014648,4.9492188-0.4936523,6.6855469,1.2578125c0.0664063,0.065918,0.1123047,0.1494141,0.1328125,0.2402344    c0.0410156,0.1791992-0.0039063,0.3369141-0.078125,0.5991211c-0.2070313,0.7319336-0.6777344,2.3925781,0.9111328,4.3496094    l1.0488281-1.0522461c0.1425781-0.1435547,0.3564453-0.1860352,0.5458984-0.1088867    c0.1865234,0.0771484,0.3085938,0.2597656,0.3085938,0.4619141v0.9213867c0,0.3862305,0.3144531,0.7001953,0.7001953,0.7001953    h0.9208984c0.2021484,0,0.3847656,0.121582,0.4619141,0.3085938s0.0341797,0.4018555-0.1083984,0.5449219l-1.0507813,1.0507813    c1.9580078,1.5888672,3.6269531,1.1142578,4.3486328,0.9101563c0.1014404-0.0287476,0.1784668-0.0470581,0.2559204-0.0636597    C22.5100708,15.2884521,23,13.4520874,23,11.5C23,5.1486816,17.8512573,0,11.5,0s-11.5,5.1486816-11.5,11.5    c0,6.3512573,5.1487427,11.5,11.5,11.5c1.5915527,0,3.1073608-0.3237305,4.4857788-0.9082642    C15.9530029,22.0557251,15.9227905,22.0181885,15.8881836,21.9833984z M16.5,4C17.3271484,4,18,4.6728516,18,5.5    S17.3271484,7,16.5,7S15,6.3271484,15,5.5S15.6728516,4,16.5,4z M13,2c0.5517578,0,1,0.4487305,1,1s-0.4482422,1-1,1    s-1-0.4487305-1-1S12.4482422,2,13,2z" fill="#FFFFFF" opacity="0.4"/><circle cx="16.5" cy="5.5" fill="#FFFFFF" opacity="0.2" r="1.5"/><circle cx="13" cy="3" fill="#FFFFFF" opacity="0.3" r="1"/></g></g><g/><g/><g/><g/><g/><g/><g/><g/><g/><g/><g/><g/><g/><g/><g/></svg>